<svg id="visual" viewBox="0 0 960 540" width="960" height="540" xmlns="http://www.w3.org/2000/svg" xmlns:xlink="http://www.w3.org/1999/xlink" version="1.1"><rect x="0" y="0" width="960" height="540" fill="#01131c"></rect><path d="M0 58L12.3 54.8C24.7 51.7 49.3 45.3 74 40.7C98.7 36 123.3 33 148 42.3C172.7 51.7 197.3 73.3 221.8 80.3C246.3 87.3 270.7 79.7 295.2 72C319.7 64.3 344.3 56.7 369 56.8C393.7 57 418.3 65 443 72.2C467.7 79.3 492.3 85.7 517 88.5C541.7 91.3 566.3 90.7 591 79C615.7 67.3 640.3 44.7 664.8 41.8C689.3 39 713.7 56 738.2 55.5C762.7 55 787.3 37 812 38.8C836.7 40.7 861.3 62.3 886 64.2C910.7 66 935.3 48 947.7 39L960 30L960 0L947.7 0C935.3 0 910.7 0 886 0C861.3 0 836.7 0 812 0C787.3 0 762.7 0 738.2 0C713.7 0 689.3 0 664.8 0C640.3 0 615.7 0 591 0C566.3 0 541.7 0 517 0C492.3 0 467.7 0 443 0C418.3 0 393.7 0 369 0C344.3 0 319.7 0 295.2 0C270.7 0 246.3 0 221.8 0C197.3 0 172.7 0 148 0C123.3 0 98.7 0 74 0C49.3 0 24.7 0 12.3 0L0 0Z" fill="#db0058" stroke-linecap="round" stroke-linejoin="miter"></path></svg>